<svg viewBox="-768 -381.5 1536 763" width="1536" height="763" style="background-color: rgb(255, 255, 255);" xmlns="http://www.w3.org/2000/svg"><path d="M-70.26340626156298,6.76872583774039L-72.40791697614759,6.165789771404426M-72.40791697614758,-87.15326885010059L-72.40791697614759,6.165789771404426M-72.40791697614759,6.165789771404426L-139.24403806795715,27.646642775104834M-70.26340626156298,-86.55033278376462L-70.26340626156298,6.76872583774039M-70.26340626156298,6.76872583774039L-137.09952735337254,28.249578841440798" style="fill:none;stroke:rgb(0,0,0);stroke-width:1;stroke-linecap:round"></path><path d="M-70.263406261563,6.76872583774039L-72.4079169761476,6.165789771404431L-72.40791697614759,-87.15326885010057zM-70.26340626156299,-86.55033278376462L-70.263406261563,6.76872583774039L-72.40791697614759,-87.15326885010057zM-139.24403806795718,27.646642775104837L-72.4079169761476,6.165789771404431L-70.263406261563,6.76872583774039z" style="fill:rgb(238,238,238); fill-opacity: 0.38"></path><path d="M-70.26340626156298,-86.55033278376462L-72.40791697614758,-87.15326885010059M-72.40791697614758,-87.15326885010059L-139.24403806795715,-65.67241584640017M-70.26340626156298,-86.55033278376462L-137.09952735337254,-65.0694797800642" style="fill:none;stroke:rgb(0,0,0);stroke-width:1;stroke-linecap:round"></path><path d="M-137.09952735337254,28.249578841440798L-70.263406261563,6.76872583774039L-70.26340626156299,-86.55033278376462z" style="fill:rgb(238,238,238); fill-opacity: 0.38"></path><path d="M6.486417244895469,27.757305946393352L-29.18866018501166,17.72714349230391M-29.18866018501166,-73.51651283047856L-29.18866018501166,17.72714349230391M-29.18866018501166,17.72714349230391L-94.53835565915355,38.73026544769596" style="fill:none;stroke:rgb(0,0,0);stroke-width:1;stroke-linecap:round"></path><path d="M-72.40791697614759,-87.15326885010057L-72.4079169761476,6.165789771404431L-139.24403806795715,-65.67241584640017z" style="fill:rgb(238,238,238); fill-opacity: 0.38"></path><path d="M-104.75816324422051,-17.17635654769538L-106.90267395880511,-17.77929261403134M-106.90267395880511,-23.38033302908794L-106.90267395880511,-17.77929261403134M-106.90267395880511,-17.77929261403134L-110.91419980305078,-16.490004792219885" style="fill:none;stroke:rgb(0,0,0);stroke-width:1;stroke-linecap:round"></path><path d="M-137.09952735337254,28.249578841440798L-139.24403806795718,27.646642775104837L-70.263406261563,6.76872583774039z" style="fill:rgb(238,238,238); fill-opacity: 0.38"></path><path d="M-105.83042148215671,-23.078865671021767L-105.83042148215671,-17.477825255965165M-105.83042148215671,-17.477825255965165L-109.8419470872968,-16.188537511001254M-105.83042148215671,-17.477825255965165L-64.87741230254196,-7.793333959440716" style="fill:none;stroke:rgb(0,0,0);stroke-width:1;stroke-linecap:round"></path><path d="M-104.75816324422053,-17.176356547695377L-106.90267395880514,-17.779292614031334L-106.90267395880514,-23.380333029087936z" style="fill:rgb(153,221,255); fill-opacity: 0.4"></path><path d="M-104.75816324422051,-22.77739696275198L-106.90267395880511,-23.38033302908794M-106.90267395880511,-23.38033302908794L-110.91419980305078,-22.091045207276483M-104.75816324422051,-22.77739696275198L-104.75816324422051,-17.17635654769538M-104.75816324422051,-17.17635654769538L-108.76968908846618,-15.887068725883923" style="fill:none;stroke:rgb(0,0,0);stroke-width:1;stroke-linecap:round"></path><path d="M-110.91419980305078,-16.49000479221988L-106.90267395880514,-17.779292614031334L-104.75816324422053,-17.176356547695377zM-104.75816324422053,-22.77739696275198L-104.75816324422053,-17.176356547695377L-106.90267395880514,-23.380333029087936zM-106.90267395880514,-23.380333029087936L-106.90267395880514,-17.779292614031334L-110.91419980305078,-22.09104520727648z" style="fill:rgb(153,221,255); fill-opacity: 0.4"></path><path d="M-105.83042148215671,-23.078865671021767L-109.8419470872968,-21.789577926057852M-105.83042148215671,-23.078865671021767L-64.87741230254196,-7.793333959440716" style="fill:none;stroke:rgb(0,0,0);stroke-width:1;stroke-linecap:round"></path><path d="M-105.83041860151283,-23.07886499591996L-105.83041860151283,-17.47782458086336L-109.84194444575846,-16.188536759051903z" style="fill:rgb(255,187,187); fill-opacity: 0.4"></path><path d="M-106.90267395880514,-17.779292614031334L-110.91419980305078,-16.49000479221988L-110.91419980305078,-22.09104520727648z" style="fill:rgb(153,221,255); fill-opacity: 0.4"></path><path d="M-104.75816324422051,-22.77739696275198L-108.76968908846618,-21.488109140940523" style="fill:none;stroke:rgb(0,0,0);stroke-width:1;stroke-linecap:round"></path><path d="M-108.76968908846618,-15.887068725883921L-104.75816324422053,-17.176356547695377L-104.75816324422053,-22.77739696275198zM-108.76968908846618,-15.887068725883921L-110.91419980305078,-16.49000479221988L-104.75816324422053,-17.176356547695377z" style="fill:rgb(153,221,255); fill-opacity: 0.4"></path><path d="M-110.91419980305078,-22.091045207276483L-110.91419980305078,-16.490004792219885M-110.91419980305078,-16.490004792219885L-108.76968908846618,-15.887068725883923" style="fill:none;stroke:rgb(0,0,0);stroke-width:1;stroke-linecap:round"></path><path d="M-108.76968908846618,-21.48810914094052L-104.75816324422053,-22.77739696275198L-106.90267395880514,-23.380333029087936z" style="fill:rgb(153,221,255); fill-opacity: 0.4"></path><path d="M-105.83041860151283,-23.07886499591996L-109.84194444575846,-16.188536759051903L-109.84194444575846,-21.7895771741085z" style="fill:rgb(255,187,187); fill-opacity: 0.4"></path><path d="M-109.8419470872968,-16.188537511001254L-109.8419470872968,-21.789577926057852M-109.8419470872968,-16.188537511001254L-64.87741230254196,-7.793333959440716" style="fill:none;stroke:rgb(0,0,0);stroke-width:1;stroke-linecap:round"></path><path d="M-110.91419980305078,-22.09104520727648L-108.76968908846618,-21.48810914094052L-106.90267395880514,-23.380333029087936zM-108.76968908846618,-21.48810914094052L-108.76968908846618,-15.887068725883921L-104.75816324422053,-22.77739696275198z" style="fill:rgb(153,221,255); fill-opacity: 0.4"></path><path d="M-110.91419980305078,-22.091045207276483L-108.76968908846618,-21.488109140940523" style="fill:none;stroke:rgb(0,0,0);stroke-width:1;stroke-linecap:round"></path><path d="M-110.91419980305078,-22.09104520727648L-110.91419980305078,-16.49000479221988L-108.76968908846618,-21.48810914094052zM-110.91419980305078,-16.49000479221988L-108.76968908846618,-15.887068725883921L-108.76968908846618,-21.48810914094052z" style="fill:rgb(153,221,255); fill-opacity: 0.4"></path><path d="M-108.76968908846618,-21.488109140940523L-108.76968908846618,-15.887068725883923M-109.8419470872968,-21.789577926057852L-64.87741230254196,-7.793333959440716" style="fill:none;stroke:rgb(0,0,0);stroke-width:1;stroke-linecap:round"></path><path d="M-137.09952735337254,-65.0694797800642L-70.26340626156299,-86.55033278376462L-72.40791697614759,-87.15326885010057zM-72.4079169761476,6.165789771404431L-139.24403806795718,27.646642775104837L-139.24403806795715,-65.67241584640017zM6.486417244895477,27.757305946393345L-29.188660185011656,17.727143492303913L-29.188660185011656,-73.51651283047856z" style="fill:rgb(238,238,238); fill-opacity: 0.38"></path><path d="M-125.86888492702047,-93.66255946698897h29.363261237013205v14.681630618506633h-29.363261237013205z" style="fill:rgb(255,255,255)"></path><path d="M-105.83041860151283,-17.47782458086336L-105.83041860151283,-23.07886499591996L-64.87741357275638,-7.793334321409279zM-109.84194444575846,-16.188536759051903L-105.83041860151283,-17.47782458086336L-64.87741357275638,-7.793334321409279zM-105.83041860151283,-23.07886499591996L-109.84194444575846,-21.7895771741085L-64.87741357275638,-7.793334321409279zM-109.84194444575846,-21.7895771741085L-109.84194444575846,-16.188536759051903L-64.87741357275638,-7.793334321409279z" style="fill:rgb(255,187,187); fill-opacity: 0.4"></path><path d="M-137.09952735337254,-65.0694797800642L-137.09952735337254,28.249578841440798L-70.26340626156299,-86.55033278376462z" style="fill:rgb(238,238,238); fill-opacity: 0.38"></path><path d="M-139.24403806795715,-65.67241584640017L-139.24403806795715,27.646642775104834M-139.24403806795715,27.646642775104834L-137.09952735337254,28.249578841440798M6.486417244895469,-63.48635037638913L-29.18866018501166,-73.51651283047856M-29.18866018501166,-73.51651283047856L-94.53835565915355,-52.51339087508652M-137.09952735337254,-65.0694797800642L-137.09952735337254,28.249578841440798" style="fill:none;stroke:rgb(0,0,0);stroke-width:1;stroke-linecap:round"></path><path d="M-156.8649399047117,27.497624991983102h29.363261237013205v14.681630618506633h-29.363261237013205z" style="fill:rgb(255,255,255)"></path><path d="M6.486417244895469,-63.48635037638913L6.486417244895469,27.757305946393352M6.486417244895469,27.757305946393352L-58.86327822924641,48.76042790178539" style="fill:none;stroke:rgb(0,0,0);stroke-width:1;stroke-linecap:round"></path><path d="M-94.53835565915354,38.730265447695956L-29.188660185011656,17.727143492303913L6.486417244895477,27.757305946393345zM-139.24403806795715,-65.67241584640017L-137.09952735337254,-65.0694797800642L-72.40791697614759,-87.15326885010057zM-139.24403806795718,27.646642775104837L-137.09952735337254,28.249578841440798L-137.09952735337254,-65.0694797800642zM6.486417244895477,-63.48635037638913L6.486417244895477,27.757305946393345L-29.188660185011656,-73.51651283047856zM-29.188660185011656,-73.51651283047856L-29.188660185011656,17.727143492303913L-94.53835565915354,-52.51339087508652z" style="fill:rgb(238,238,238); fill-opacity: 0.38"></path><path d="M-165.30423497058834,-25.927110042988637h29.363261237013205v14.681630618506633h-29.363261237013205z" style="fill:rgb(255,255,255)"></path><path d="M-139.24403806795715,-65.67241584640017L-139.24403806795718,27.646642775104837L-137.09952735337254,-65.0694797800642z" style="fill:rgb(238,238,238); fill-opacity: 0.38"></path><path d="M-30.45555619867482,-4.629012652804806L-66.13063362858195,-14.659175106894239M-66.13063362858195,-20.260215521950837L-66.13063362858195,-14.659175106894239M-66.13063362858195,-14.659175106894239L-70.14215947282759,-13.36988728508278M-30.45555619867482,-10.230053067861405L-66.13063362858195,-20.260215521950837M-66.13063362858195,-20.260215521950837L-70.14215947282759,-18.97092770013938" style="fill:none;stroke:rgb(0,0,0);stroke-width:1;stroke-linecap:round"></path><path d="M-29.188660185011656,17.727143492303913L-94.53835565915354,38.730265447695956L-94.53835565915354,-52.51339087508652z" style="fill:rgb(238,238,238); fill-opacity: 0.38"></path><path d="M-66.13063362858195,-20.260215521950837L-66.13063362858195,-14.659175106894239L-70.14215947282759,-18.97092770013938zM-66.13063362858195,-14.659175106894239L-70.14215947282759,-13.36988728508278L-70.14215947282759,-18.97092770013938z" style="fill:rgb(153,221,255); fill-opacity: 0.4"></path><path d="M-70.14215947282759,-18.97092770013938L-70.14215947282759,-13.36988728508278M-70.14215947282759,-13.36988728508278L-34.46708204292047,-3.339724830993348M-139.24403806795715,-65.67241584640017L-137.09952735337254,-65.0694797800642M-70.14215947282759,-18.97092770013938L-34.46708204292047,-8.940765246049947" style="fill:none;stroke:rgb(0,0,0);stroke-width:1;stroke-linecap:round"></path><path d="M-82.97867063532846,-80.56613377249255h29.36326123701331v14.681630618506633h-29.36326123701331z" style="fill:rgb(255,255,255)"></path><path d="M6.486417244895469,-63.48635037638913L-58.86327822924641,-42.48322842099708" style="fill:none;stroke:rgb(0,0,0);stroke-width:1;stroke-linecap:round"></path><path d="M-30.455556198674813,-4.629012652804808L-66.13063362858195,-14.659175106894239L-66.13063362858195,-20.260215521950837zM-70.14215947282759,-13.36988728508278L-66.13063362858195,-14.659175106894239L-30.455556198674813,-4.629012652804808z" style="fill:rgb(153,221,255); fill-opacity: 0.4"></path><path d="M-58.86327822924641,48.76042790178539L6.486417244895477,27.757305946393345L6.486417244895477,-63.48635037638913zM-58.86327822924641,48.76042790178539L-94.53835565915354,38.730265447695956L6.486417244895477,27.757305946393345z" style="fill:rgb(238,238,238); fill-opacity: 0.38"></path><path d="M-94.53835565915355,-52.51339087508652L-94.53835565915355,38.73026544769596M-94.53835565915355,38.73026544769596L-58.86327822924641,48.76042790178539" style="fill:none;stroke:rgb(0,0,0);stroke-width:1;stroke-linecap:round"></path><path d="M-70.14215947282759,-18.97092770013938L-34.46708204292047,-8.94076524604995L-66.13063362858195,-20.260215521950837zM-70.14215947282759,-18.97092770013938L-70.14215947282759,-13.36988728508278L-34.46708204292047,-8.94076524604995z" style="fill:rgb(153,221,255); fill-opacity: 0.4"></path><path d="M-58.86327822924641,-42.48322842099709L6.486417244895477,-63.48635037638913L-29.188660185011656,-73.51651283047856z" style="fill:rgb(238,238,238); fill-opacity: 0.38"></path><path d="M-30.455556198674813,-10.230053067861405L-30.455556198674813,-4.629012652804808L-66.13063362858195,-20.260215521950837zM-34.46708204292047,-3.339724830993349L-70.14215947282759,-13.36988728508278L-30.455556198674813,-4.629012652804808zM-34.46708204292047,-8.94076524604995L-30.455556198674813,-10.230053067861405L-66.13063362858195,-20.260215521950837zM-70.14215947282759,-13.36988728508278L-34.46708204292047,-3.339724830993349L-34.46708204292047,-8.94076524604995z" style="fill:rgb(153,221,255); fill-opacity: 0.4"></path><path d="M78.10026332123616,42.37449076790807L42.425185891329036,32.344328313818636M42.425185891329036,-39.487598425345496L42.425185891329036,32.344328313818636M42.425185891329036,32.344328313818636L-9.021618488354274,48.87911854905769" style="fill:none;stroke:rgb(0,0,0);stroke-width:1;stroke-linecap:round"></path><path d="M-121.67080556499802,-14.107254981261782h29.363261237013205v14.681630618506638h-29.363261237013205z" style="fill:rgb(255,255,255)"></path><path d="M-30.45555713163194,-10.230053344014479L-30.45555713163194,-4.629012845495875M-30.45555713163194,-4.629012845495875L-34.46708297587759,-3.339725023684417M-30.45555713163194,-4.629012845495875L11.763427628335226,5.150849853850157M-30.45555619867482,-10.230053067861405L-30.45555619867482,-4.629012652804806M-30.45555619867482,-4.629012652804806L-34.46708204292047,-3.339724830993348" style="fill:none;stroke:rgb(0,0,0);stroke-width:1;stroke-linecap:round"></path><path d="M-94.53835565915354,-52.51339087508652L-58.86327822924641,-42.48322842099709L-29.188660185011656,-73.51651283047856z" style="fill:rgb(238,238,238); fill-opacity: 0.38"></path><path d="M-95.3939718331825,43.29485689919685h29.36326123701331v14.681630618506633h-29.36326123701331z" style="fill:rgb(255,255,255)"></path><path d="M-30.45555713163194,-10.230053344014479L-34.46708297587759,-8.940765522203023M-30.45555713163194,-10.230053344014479L11.763427628335226,5.150849853850157M-30.45555619867482,-10.230053067861405L-34.46708204292047,-8.940765246049947" style="fill:none;stroke:rgb(0,0,0);stroke-width:1;stroke-linecap:round"></path><path d="M-30.455556247689437,-10.230053081642023L-30.455556247689437,-4.629012666585425L-34.46708209193508,-3.3397248447739667z" style="fill:rgb(255,187,187); fill-opacity: 0.4"></path><path d="M-34.46708204292047,-3.339724830993349L-30.455556198674813,-4.629012652804808L-30.455556198674813,-10.230053067861405z" style="fill:rgb(153,221,255); fill-opacity: 0.4"></path><path d="M-30.455556247689437,-10.230053081642023L-34.46708209193508,-3.3397248447739667L-34.46708209193508,-8.940765259830567z" style="fill:rgb(255,187,187); fill-opacity: 0.4"></path><path d="M-34.46708204292047,-8.94076524604995L-34.46708204292047,-3.339724830993349L-30.455556198674813,-10.230053067861405z" style="fill:rgb(153,221,255); fill-opacity: 0.4"></path><path d="M-34.46708297587759,-3.339725023684417L-34.46708297587759,-8.940765522203023M-34.46708297587759,-3.339725023684417L11.763427628335226,5.150849853850157M-34.46708204292047,-8.940765246049947L-34.46708204292047,-3.339724830993348M-34.46708297587759,-8.940765522203023L11.763427628335226,5.150849853850157M-94.53835565915355,-52.51339087508652L-58.86327822924641,-42.48322842099708" style="fill:none;stroke:rgb(0,0,0);stroke-width:1;stroke-linecap:round"></path><path d="M-58.86327822924641,-42.48322842099709L-58.86327822924641,48.76042790178539L6.486417244895477,-63.48635037638913zM-94.53835565915354,-52.51339087508652L-94.53835565915354,38.730265447695956L-58.86327822924641,-42.48322842099709z" style="fill:rgb(238,238,238); fill-opacity: 0.38"></path><path d="M-30.455556247689437,-4.629012666585425L-30.455556247689437,-10.230053081642023L11.763427421998966,5.1508497655973455z" style="fill:rgb(255,187,187); fill-opacity: 0.4"></path><path d="M-94.53835565915354,38.730265447695956L-58.86327822924641,48.76042790178539L-58.86327822924641,-42.48322842099709z" style="fill:rgb(238,238,238); fill-opacity: 0.38"></path><path d="M-34.46708209193508,-3.3397248447739667L-30.455556247689437,-4.629012666585425L11.763427421998966,5.1508497655973455z" style="fill:rgb(255,187,187); fill-opacity: 0.4"></path><path d="M78.10026332123616,42.374490767908064L42.425185891329036,32.344328313818636L42.425185891329036,-39.48759842534549z" style="fill:rgb(238,238,238); fill-opacity: 0.38"></path><path d="M-58.86327822924641,-42.48322842099708L-58.86327822924641,48.76042790178539" style="fill:none;stroke:rgb(0,0,0);stroke-width:1;stroke-linecap:round"></path><path d="M-30.455556247689437,-10.230053081642023L-34.46708209193508,-8.940765259830567L11.763427421998966,5.1508497655973455zM-34.46708209193508,-8.940765259830567L-34.46708209193508,-3.3397248447739667L11.763427421998966,5.1508497655973455z" style="fill:rgb(255,187,187); fill-opacity: 0.4"></path><path d="M78.10026332123616,-29.457435971256054L42.425185891329036,-39.487598425345496M42.425185891329036,-39.487598425345496L-9.021618488354274,-22.95280819010645" style="fill:none;stroke:rgb(0,0,0);stroke-width:1;stroke-linecap:round"></path><path d="M-9.021618488354274,48.87911854905769L42.425185891329036,32.344328313818636L78.10026332123616,42.374490767908064z" style="fill:rgb(238,238,238); fill-opacity: 0.38"></path><path d="M66.05615014805298,-7.598630006599292L30.381072718145838,-17.628792460688725M30.381072718145838,-23.229832875745323L30.381072718145838,-17.628792460688725M30.381072718145838,-17.628792460688725L26.369546873900187,-16.339504638877266M66.05615014805298,-13.199670421655892L30.381072718145838,-23.229832875745323M30.381072718145838,-23.229832875745323L26.369546873900187,-21.940545053933867" style="fill:none;stroke:rgb(0,0,0);stroke-width:1;stroke-linecap:round"></path><path d="M30.381072718145838,-23.22983287574532L30.381072718145838,-17.62879246068872L26.369546873900187,-21.940545053933867z" style="fill:rgb(153,221,255); fill-opacity: 0.4"></path><path d="M78.10026332123616,-29.457435971256054L78.10026332123616,42.37449076790807M78.10026332123616,42.37449076790807L26.65345894155285,58.90928100314712" style="fill:none;stroke:rgb(0,0,0);stroke-width:1;stroke-linecap:round"></path><path d="M30.381072718145838,-17.62879246068872L26.369546873900187,-16.339504638877266L26.369546873900187,-21.940545053933867z" style="fill:rgb(153,221,255); fill-opacity: 0.4"></path><path d="M42.425185891329036,-39.48759842534549L42.425185891329036,32.344328313818636L-9.021618488354274,-22.952808190106442z" style="fill:rgb(238,238,238); fill-opacity: 0.38"></path><path d="M26.369546873900187,-21.940545053933867L26.369546873900187,-16.339504638877266M26.369546873900187,-16.339504638877266L62.044624303807325,-6.309342184787834M26.369546873900187,-21.940545053933867L62.044624303807325,-11.910382599844432" style="fill:none;stroke:rgb(0,0,0);stroke-width:1;stroke-linecap:round"></path><path d="M78.10026332123616,-29.45743597125606L78.10026332123616,42.374490767908064L42.425185891329036,-39.48759842534549z" style="fill:rgb(238,238,238); fill-opacity: 0.38"></path><path d="M66.05615014805298,-7.598630006599292L30.381072718145838,-17.62879246068872L30.381072718145838,-23.22983287574532zM26.369546873900187,-16.339504638877266L30.381072718145838,-17.62879246068872L66.05615014805298,-7.598630006599292z" style="fill:rgb(153,221,255); fill-opacity: 0.4"></path><path d="M42.425185891329036,32.344328313818636L-9.021618488354274,48.87911854905769L-9.021618488354274,-22.952808190106442z" style="fill:rgb(238,238,238); fill-opacity: 0.38"></path><path d="M26.369546873900187,-21.940545053933867L62.044624303807325,-11.910382599844436L30.381072718145838,-23.22983287574532zM26.369546873900187,-21.940545053933867L26.369546873900187,-16.339504638877266L62.044624303807325,-11.910382599844436z" style="fill:rgb(153,221,255); fill-opacity: 0.4"></path><path d="M-4.413379011758444,-48.771386589498185h29.36326123701327v14.681630618506633h-29.36326123701327z" style="fill:rgb(255,255,255)"></path><path d="M66.05615014805298,-13.199670421655892L66.05615014805298,-7.598630006599292L30.381072718145838,-23.22983287574532z" style="fill:rgb(153,221,255); fill-opacity: 0.4"></path><path d="M-9.021618488354274,-22.95280819010645L-9.021618488354274,48.87911854905769M-9.021618488354274,48.87911854905769L26.65345894155285,58.90928100314712" style="fill:none;stroke:rgb(0,0,0);stroke-width:1;stroke-linecap:round"></path><path d="M62.044624303807325,-6.309342184787834L26.369546873900187,-16.339504638877266L66.05615014805298,-7.598630006599292zM62.044624303807325,-11.910382599844436L66.05615014805298,-13.199670421655892L30.381072718145838,-23.22983287574532z" style="fill:rgb(153,221,255); fill-opacity: 0.4"></path><path d="M78.10026332123616,-29.457435971256054L26.65345894155285,-12.92264573601701" style="fill:none;stroke:rgb(0,0,0);stroke-width:1;stroke-linecap:round"></path><path d="M26.369546873900187,-16.339504638877266L62.044624303807325,-6.309342184787834L62.044624303807325,-11.910382599844436z" style="fill:rgb(153,221,255); fill-opacity: 0.4"></path><path d="M26.653458941552856,58.909281003147115L-9.021618488354274,48.87911854905769L78.10026332123616,42.374490767908064zM26.653458941552856,58.909281003147115L78.10026332123616,42.374490767908064L78.10026332123616,-29.45743597125606z" style="fill:rgb(238,238,238); fill-opacity: 0.38"></path><path d="M66.05615014805298,-13.199670421655892L66.05615014805298,-7.598630006599292M66.05615014805298,-7.598630006599292L62.044624303807325,-6.309342184787834M66.05615163803122,-13.199669409883912L66.05615163803122,-7.5986289948273145M66.05615163803122,-7.5986289948273145L62.04462579378557,-6.309341173015857M66.05615163803122,-7.5986289948273145L106.18030727557215,3.898614830420675" style="fill:none;stroke:rgb(0,0,0);stroke-width:1;stroke-linecap:round"></path><path d="M26.653458941552856,-12.922645736017012L78.10026332123616,-29.45743597125606L42.425185891329036,-39.48759842534549z" style="fill:rgb(238,238,238); fill-opacity: 0.38"></path><path d="M66.05615014805298,-13.199670421655892L62.044624303807325,-11.910382599844432M66.05615163803122,-13.199669409883912L62.04462579378557,-11.910381588072456M66.05615163803122,-13.199669409883912L106.18030727557215,3.898614830420675" style="fill:none;stroke:rgb(0,0,0);stroke-width:1;stroke-linecap:round"></path><path d="M66.05615009903835,-13.19967043543651L66.05615009903835,-7.598630020379909L62.044624254792694,-6.3093421985684515z" style="fill:rgb(255,187,187); fill-opacity: 0.4"></path><path d="M62.044624303807325,-6.309342184787834L66.05615014805298,-7.598630006599292L66.05615014805298,-13.199670421655892z" style="fill:rgb(153,221,255); fill-opacity: 0.4"></path><path d="M-36.15406936972251,5.7474632254384055h29.363261237013283v14.681630618506638h-29.363261237013283z" style="fill:rgb(255,255,255)"></path><path d="M66.05615009903835,-13.19967043543651L62.044624254792694,-6.3093421985684515L62.044624254792694,-11.910382613625053z" style="fill:rgb(255,187,187); fill-opacity: 0.4"></path><path d="M62.044624303807325,-11.910382599844436L62.044624303807325,-6.309342184787834L66.05615014805298,-13.199670421655892z" style="fill:rgb(153,221,255); fill-opacity: 0.4"></path><path d="M62.044624303807325,-11.910382599844432L62.044624303807325,-6.309342184787834M62.04462579378557,-6.309341173015857L62.04462579378557,-11.910381588072456M62.04462579378557,-6.309341173015857L106.18030727557215,3.898614830420675M62.04462579378557,-11.910381588072456L106.18030727557215,3.898614830420675" style="fill:none;stroke:rgb(0,0,0);stroke-width:1;stroke-linecap:round"></path><path d="M-9.021618488354274,-22.952808190106442L26.653458941552856,-12.922645736017012L42.425185891329036,-39.48759842534549z" style="fill:rgb(238,238,238); fill-opacity: 0.38"></path><path d="M-9.877235637906924,53.44371167615007h29.36326123701328v14.681630618506633h-29.36326123701328z" style="fill:rgb(255,255,255)"></path><path d="M154.99019958045807,62.6626338261411L119.31512215055093,52.63247137205166M119.31512215055093,-14.521069401454996L119.31512215055093,52.63247137205166M119.31512215055093,52.63247137205166L71.21902849956382,68.09035703166198M-9.021618488354274,-22.95280819010645L26.65345894155285,-12.92264573601701" style="fill:none;stroke:rgb(0,0,0);stroke-width:1;stroke-linecap:round"></path><path d="M66.05615009903835,-7.598630020379909L66.05615009903835,-13.19967043543651L106.18030957011797,3.8986151551430344zM62.044624254792694,-6.3093421985684515L66.05615009903835,-7.598630020379909L106.18030957011797,3.8986151551430344zM66.05615009903835,-13.19967043543651L62.044624254792694,-11.910382613625053L106.18030957011797,3.8986151551430344z" style="fill:rgb(255,187,187); fill-opacity: 0.4"></path><path d="M-9.021618488354274,-22.952808190106442L-9.021618488354274,48.87911854905769L26.653458941552856,-12.922645736017012z" style="fill:rgb(238,238,238); fill-opacity: 0.38"></path><path d="M62.044624254792694,-11.910382613625053L62.044624254792694,-6.3093421985684515L106.18030957011797,3.8986151551430344z" style="fill:rgb(255,187,187); fill-opacity: 0.4"></path><path d="M-9.021618488354274,48.87911854905769L26.653458941552856,58.909281003147115L26.653458941552856,-12.922645736017012zM26.653458941552856,-12.922645736017012L26.653458941552856,58.909281003147115L78.10026332123616,-29.45743597125606z" style="fill:rgb(238,238,238); fill-opacity: 0.38"></path><path d="M26.65345894155285,-12.92264573601701L26.65345894155285,58.90928100314712" style="fill:none;stroke:rgb(0,0,0);stroke-width:1;stroke-linecap:round"></path><path d="M154.99019958045807,62.6626338261411L119.31512215055093,52.63247137205166L119.31512215055093,-14.52106940145499z" style="fill:rgb(238,238,238); fill-opacity: 0.38"></path><path d="M154.99019958045807,-4.490906947365557L119.31512215055093,-14.521069401454996M119.31512215055093,-14.521069401454996L71.21902849956382,0.9368162581553325" style="fill:none;stroke:rgb(0,0,0);stroke-width:1;stroke-linecap:round"></path><path d="M71.2190284995638,68.09035703166198L119.31512215055093,52.63247137205166L154.99019958045807,62.6626338261411zM119.31512215055093,-14.52106940145499L119.31512215055093,52.63247137205166L71.2190284995638,0.9368162581553381z" style="fill:rgb(238,238,238); fill-opacity: 0.38"></path><path d="M140.28804780293558,15.464862787081726L104.61297037302843,5.434700332992294M104.61297037302843,-0.16634008206430576L104.61297037302843,5.434700332992294M104.61297037302843,5.434700332992294L100.60144452878279,6.7239881548037514M154.99019958045807,-4.490906947365557L154.99019958045807,62.6626338261411M154.99019958045807,62.6626338261411L106.89410592947095,78.12051948575142M140.28804780293558,9.863822372025128L104.61297037302843,-0.16634008206430576M104.61297037302843,-0.16634008206430576L100.60144452878279,1.1229477397471526" style="fill:none;stroke:rgb(0,0,0);stroke-width:1;stroke-linecap:round"></path><path d="M104.61297037302845,-0.16634008206430279L104.61297037302845,5.434700332992294L100.60144452878279,1.1229477397471581zM104.61297037302845,5.434700332992294L100.60144452878279,6.7239881548037514L100.60144452878279,1.1229477397471581z" style="fill:rgb(153,221,255); fill-opacity: 0.4"></path><path d="M154.99019958045807,-4.490906947365557L154.99019958045807,62.6626338261411L119.31512215055093,-14.52106940145499z" style="fill:rgb(238,238,238); fill-opacity: 0.38"></path><path d="M100.60144452878279,1.1229477397471526L100.60144452878279,6.7239881548037514M100.60144452878279,6.7239881548037514L136.27652195868993,16.754150608893184M100.60144452878279,1.1229477397471526L136.27652195868993,11.153110193836586" style="fill:none;stroke:rgb(0,0,0);stroke-width:1;stroke-linecap:round"></path><path d="M119.31512215055093,52.63247137205166L71.2190284995638,68.09035703166198L71.2190284995638,0.9368162581553381z" style="fill:rgb(238,238,238); fill-opacity: 0.38"></path><path d="M140.28804780293558,15.464862787081726L104.61297037302845,5.434700332992294L104.61297037302845,-0.16634008206430279z" style="fill:rgb(153,221,255); fill-opacity: 0.4"></path><path d="M74.1519126118115,-24.34331113700409h29.36326123701331v14.681630618506633h-29.36326123701331z" style="fill:rgb(255,255,255)"></path><path d="M100.60144452878279,6.7239881548037514L104.61297037302845,5.434700332992294L140.28804780293558,15.464862787081726zM100.60144452878279,1.1229477397471581L136.27652195868993,11.153110193836591L104.61297037302845,-0.16634008206430279zM100.60144452878279,1.1229477397471581L100.60144452878279,6.7239881548037514L136.27652195868993,11.153110193836591z" style="fill:rgb(153,221,255); fill-opacity: 0.4"></path><path d="M71.21902849956382,0.9368162581553325L71.21902849956382,68.09035703166198M71.21902849956382,68.09035703166198L106.89410592947095,78.12051948575142M154.99019958045807,-4.490906947365557L106.89410592947095,10.966978712244769" style="fill:none;stroke:rgb(0,0,0);stroke-width:1;stroke-linecap:round"></path><path d="M140.28804780293558,9.86382237202513L140.28804780293558,15.464862787081726L104.61297037302845,-0.16634008206430279z" style="fill:rgb(153,221,255); fill-opacity: 0.4"></path><path d="M106.89410592947095,78.12051948575142L71.2190284995638,68.09035703166198L154.99019958045807,62.6626338261411zM106.89410592947095,78.12051948575142L154.99019958045807,62.6626338261411L154.99019958045807,-4.490906947365557z" style="fill:rgb(238,238,238); fill-opacity: 0.38"></path><path d="M136.27652195868993,16.754150608893184L100.60144452878279,6.7239881548037514L140.28804780293558,15.464862787081726zM136.27652195868993,11.153110193836591L140.28804780293558,9.86382237202513L104.61297037302845,-0.16634008206430279zM100.60144452878279,6.7239881548037514L136.27652195868993,16.754150608893184L136.27652195868993,11.153110193836591z" style="fill:rgb(153,221,255); fill-opacity: 0.4"></path><path d="M106.89410592947095,10.96697871224477L154.99019958045807,-4.490906947365557L119.31512215055093,-14.52106940145499z" style="fill:rgb(238,238,238); fill-opacity: 0.38"></path><path d="M44.08657669888018,27.297894986335606h29.36326123701331v14.681630618506633h-29.36326123701331z" style="fill:rgb(255,255,255)"></path><path d="M140.28804480550178,9.863820996022195L140.28804480550178,15.464862746470892M140.28804480550178,15.464862746470892L136.27651943946728,16.754150414587265M140.28804480550178,15.464862746470892L178.75897121663388,33.096708576228316M140.28804780293558,9.863822372025128L140.28804780293558,15.464862787081726M140.28804780293558,15.464862787081726L136.27652195868993,16.754150608893184" style="fill:none;stroke:rgb(0,0,0);stroke-width:1;stroke-linecap:round"></path><path d="M71.2190284995638,0.9368162581553381L106.89410592947095,10.96697871224477L119.31512215055093,-14.52106940145499z" style="fill:rgb(238,238,238); fill-opacity: 0.38"></path><path d="M140.28804480550178,9.863820996022195L136.27651943946728,11.153108664138571M140.28804480550178,9.863820996022195L178.75897121663388,33.096708576228316M140.28804780293558,9.863822372025128L136.27652195868993,11.153110193836586" style="fill:none;stroke:rgb(0,0,0);stroke-width:1;stroke-linecap:round"></path><path d="M140.28804775392098,9.86382235824451L140.28804775392098,15.464862773301107L136.2765219096753,16.754150595112566z" style="fill:rgb(255,187,187); fill-opacity: 0.4"></path><path d="M136.27652195868993,16.754150608893184L140.28804780293558,15.464862787081726L140.28804780293558,9.86382237202513z" style="fill:rgb(153,221,255); fill-opacity: 0.4"></path><path d="M140.28804775392098,9.86382235824451L136.2765219096753,16.754150595112566L136.2765219096753,11.15311018005597z" style="fill:rgb(255,187,187); fill-opacity: 0.4"></path><path d="M136.27652195868993,11.153110193836591L136.27652195868993,16.754150608893184L140.28804780293558,9.86382237202513z" style="fill:rgb(153,221,255); fill-opacity: 0.4"></path><path d="M136.27651943946728,16.754150414587265L136.27651943946728,11.153108664138571M136.27651943946728,16.754150414587265L178.75897121663388,33.096708576228316M136.27652195868993,11.153110193836586L136.27652195868993,16.754150608893184" style="fill:none;stroke:rgb(0,0,0);stroke-width:1;stroke-linecap:round"></path><path d="M70.36341043069578,72.65495173780056h29.36326123701331v14.681630618506633h-29.36326123701331z" style="fill:rgb(255,255,255)"></path><path d="M136.27651943946728,11.153108664138571L178.75897121663388,33.096708576228316M71.21902849956382,0.9368162581553325L106.89410592947095,10.966978712244769" style="fill:none;stroke:rgb(0,0,0);stroke-width:1;stroke-linecap:round"></path><path d="M71.2190284995638,0.9368162581553381L71.2190284995638,68.09035703166198L106.89410592947095,10.96697871224477zM71.2190284995638,68.09035703166198L106.89410592947095,78.12051948575142L106.89410592947095,10.96697871224477z" style="fill:rgb(238,238,238); fill-opacity: 0.38"></path><path d="M140.28804775392098,15.464862773301107L140.28804775392098,9.86382235824451L178.75897370129053,33.09670949341321zM136.2765219096753,16.754150595112566L140.28804775392098,15.464862773301107L178.75897370129053,33.09670949341321z" style="fill:rgb(255,187,187); fill-opacity: 0.4"></path><path d="M106.89410592947095,10.96697871224477L106.89410592947095,78.12051948575142L154.99019958045807,-4.490906947365557z" style="fill:rgb(238,238,238); fill-opacity: 0.38"></path><path d="M140.28804775392098,9.86382235824451L136.2765219096753,11.15311018005597L178.75897370129053,33.09670949341321zM136.2765219096753,11.15311018005597L136.2765219096753,16.754150595112566L178.75897370129053,33.09670949341321z" style="fill:rgb(255,187,187); fill-opacity: 0.4"></path><path d="M106.89410592947095,10.966978712244769L106.89410592947095,78.12051948575142M225.6481991312042,76.25243557809671L189.97312170129703,66.22227312400727M189.97312170129703,21.14963831653034L189.97312170129703,66.22227312400727M189.97312170129703,66.22227312400727L157.69161219595762,76.59741682017145M225.6481991312042,31.179800770619767L189.97312170129703,21.14963831653034M189.97312170129703,21.14963831653034L157.69161219595762,31.52478201269451" style="fill:none;stroke:rgb(0,0,0);stroke-width:1;stroke-linecap:round"></path><path d="M225.6481991312042,76.25243557809671L189.97312170129706,66.22227312400727L189.97312170129706,21.14963831653034zM189.97312170129706,21.14963831653034L189.97312170129706,66.22227312400727L157.69161219595765,31.524782012694512zM157.69161219595765,76.59741682017145L189.97312170129706,66.22227312400727L225.6481991312042,76.25243557809671zM189.97312170129706,66.22227312400727L157.69161219595765,76.59741682017145L157.69161219595765,31.524782012694512z" style="fill:rgb(238,238,238); fill-opacity: 0.38"></path><path d="M152.71720423538156,8.786026468616125h29.363261237013205v14.681630618506633h-29.363261237013205z" style="fill:rgb(255,255,255)"></path><path d="M225.6481991312042,31.179800770619778L225.6481991312042,76.25243557809671L189.97312170129706,21.14963831653034z" style="fill:rgb(238,238,238); fill-opacity: 0.38"></path><path d="M225.6481991312042,31.179800770619767L225.6481991312042,76.25243557809671M225.6481991312042,76.25243557809671L193.36668962586475,86.62757927426087M157.69161219595762,31.52478201269451L157.69161219595762,76.59741682017145M157.69161219595762,76.59741682017145L193.36668962586475,86.62757927426087" style="fill:none;stroke:rgb(0,0,0);stroke-width:1;stroke-linecap:round"></path><path d="M130.55916101791766,46.84540755774486h29.363261237013205v14.681630618506633h-29.363261237013205z" style="fill:rgb(255,255,255)"></path><path d="M193.3666896258648,86.62757927426088L157.69161219595765,76.59741682017145L225.6481991312042,76.25243557809671z" style="fill:rgb(238,238,238); fill-opacity: 0.38"></path><path d="M225.6481991312042,31.179800770619767L193.36668962586475,41.55494446678394" style="fill:none;stroke:rgb(0,0,0);stroke-width:1;stroke-linecap:round"></path><path d="M193.3666896258648,41.55494446678395L225.6481991312042,31.179800770619778L189.97312170129706,21.14963831653034zM157.69161219595765,31.524782012694512L193.3666896258648,41.55494446678395L189.97312170129706,21.14963831653034z" style="fill:rgb(238,238,238); fill-opacity: 0.38"></path><path d="M157.69161219595762,31.52478201269451L193.36668962586475,41.55494446678394" style="fill:none;stroke:rgb(0,0,0);stroke-width:1;stroke-linecap:round"></path><path d="M193.3666896258648,86.62757927426088L225.6481991312042,76.25243557809671L225.6481991312042,31.179800770619778z" style="fill:rgb(238,238,238); fill-opacity: 0.38"></path><path d="M156.83599474973323,81.162010456837h29.363261237013205v14.681630618506633h-29.363261237013205z" style="fill:rgb(255,255,255)"></path><path d="M157.69161219595765,31.524782012694512L157.69161219595765,76.59741682017145L193.3666896258648,41.55494446678395zM157.69161219595765,76.59741682017145L193.3666896258648,86.62757927426088L193.3666896258648,41.55494446678395zM193.3666896258648,41.55494446678395L193.3666896258648,86.62757927426088L225.6481991312042,31.179800770619778z" style="fill:rgb(238,238,238); fill-opacity: 0.38"></path><path d="M219.08426282157905,61.59624324718905L243.38871758687122,68.42951866566325M193.36668962586475,41.55494446678394L193.36668962586475,86.62757927426087M281.6460265648654,116.32022352340643L266.78141096907075,112.14098916753582M266.78141096907075,29.494736730752262L266.78141096907075,112.14098916753582M266.78141096907075,112.14098916753582L252.87852178745675,116.60932027290846" style="fill:none;stroke:rgb(0,0,0);stroke-width:1;stroke-linecap:round"></path><path d="M252.87852178745675,116.60932027290849L266.78141096907075,112.1409891675358L281.6460265648654,116.3202235234064z" style="fill:rgb(238,238,238); fill-opacity: 0.38"></path><path d="M238.6197327248732,72.12577158478398L243.38871758687122,75.430819184484L257.6854556841019,72.44909244123632zM246.33611220827652,61.818067059604424L240.44132296546587,63.71262795189005L257.6854556841019,72.44909244123632z" style="fill:rgb(0,0,0)"></path><path d="M240.12982264753217,117.65064034433468h29.363261237013205v14.681630618506686h-29.363261237013205z" style="fill:rgb(255,255,255)"></path><path d="M240.44132296546587,63.71262795189005L238.6197327248732,72.12577158478398L257.6854556841019,72.44909244123632z" style="fill:rgb(0,0,0)"></path><path d="M281.6460265648654,116.3202235234064L266.78141096907075,112.1409891675358L266.78141096907075,29.494736730752262z" style="fill:rgb(238,238,238); fill-opacity: 0.38"></path><path d="M281.6460265648654,33.67397108662286L281.6460265648654,116.32022352340643M281.6460265648654,116.32022352340643L267.7431373832514,120.78855462877907M252.87852178745675,33.96306783612493L252.87852178745675,116.60932027290846M252.87852178745675,116.60932027290846L267.7431373832514,120.78855462877907" style="fill:none;stroke:rgb(0,0,0);stroke-width:1;stroke-linecap:round"></path><path d="M266.78141096907075,112.1409891675358L252.87852178745675,116.60932027290849L252.87852178745675,33.96306783612493zM267.74313738325145,120.78855462877908L252.87852178745675,116.60932027290849L281.6460265648654,116.3202235234064zM266.78141096907075,29.494736730752262L266.78141096907075,112.1409891675358L252.87852178745675,33.96306783612493z" style="fill:rgb(238,238,238); fill-opacity: 0.38"></path><path d="M281.6460265648654,33.67397108662286L266.78141096907075,29.494736730752262M266.78141096907075,29.494736730752262L252.87852178745675,33.96306783612493" style="fill:none;stroke:rgb(0,0,0);stroke-width:1;stroke-linecap:round"></path><path d="M281.6460265648654,33.67397108662286L281.6460265648654,116.3202235234064L266.78141096907075,29.494736730752262zM267.74313738325145,120.78855462877908L281.6460265648654,116.3202235234064L281.6460265648654,33.67397108662286z" style="fill:rgb(238,238,238); fill-opacity: 0.38"></path><path d="M267.7431373832514,38.142302191995526L267.7431373832514,120.78855462877907" style="fill:none;stroke:rgb(0,0,0);stroke-width:1;stroke-linecap:round"></path><path d="M252.87852178745675,116.60932027290849L267.74313738325145,120.78855462877908L267.74313738325145,38.142302191995526z" style="fill:rgb(238,238,238); fill-opacity: 0.38"></path><path d="M276.8390926682202,77.83419891829499L301.14354743351237,84.66747433676919" style="fill:none;stroke:rgb(0,0,0);stroke-width:1;stroke-linecap:round"></path><path d="M252.87852178745675,33.96306783612493L252.87852178745675,116.60932027290849L267.74313738325145,38.142302191995526z" style="fill:rgb(238,238,238); fill-opacity: 0.38"></path><path d="M281.6460265648654,33.67397108662286L267.7431373832514,38.142302191995526" style="fill:none;stroke:rgb(0,0,0);stroke-width:1;stroke-linecap:round"></path><path d="M267.74313738325145,38.142302191995526L281.6460265648654,33.67397108662286L266.78141096907075,29.494736730752262zM252.87852178745675,33.96306783612493L267.74313738325145,38.142302191995526L266.78141096907075,29.494736730752262zM267.74313738325145,38.142302191995526L267.74313738325145,120.78855462877908L281.6460265648654,33.67397108662286z" style="fill:rgb(238,238,238); fill-opacity: 0.38"></path><path d="M252.87852178745675,33.96306783612493L267.7431373832514,38.142302191995526M339.4008564115066,118.4114706540884L324.53624081571195,114.23223629821781M324.53624081571195,59.87940094228216L324.53624081571195,114.23223629821781M324.53624081571195,114.23223629821781L310.63335163409795,118.70056740359047" style="fill:none;stroke:rgb(0,0,0);stroke-width:1;stroke-linecap:round"></path><path d="M296.3745625715144,88.36372725588994L301.1435474335124,91.66877485558996L315.4402855307431,88.68704811234227zM304.0909420549177,78.05602273071038L298.1961528121071,79.950583622996L315.4402855307431,88.68704811234227zM298.1961528121071,79.950583622996L296.3745625715144,88.36372725588994L315.4402855307431,88.68704811234227z" style="fill:rgb(0,0,0)"></path><path d="M310.633351634098,118.70056740359047L324.53624081571195,114.23223629821781L339.4008564115066,118.4114706540884zM339.4008564115066,118.4114706540884L324.53624081571195,114.23223629821781L324.53624081571195,59.87940094228216z" style="fill:rgb(238,238,238); fill-opacity: 0.38"></path><path d="M297.88465249417345,119.74188780120399h29.363261237013205v14.681630618506686h-29.363261237013205z" style="fill:rgb(255,255,255)"></path><path d="M339.4008564115066,64.05863529815277L339.4008564115066,118.4114706540884M339.4008564115066,118.4114706540884L325.4979672298926,122.87980175946107M310.63335163409795,64.34773204765483L310.63335163409795,118.70056740359047M310.63335163409795,118.70056740359047L325.4979672298926,122.87980175946107" style="fill:none;stroke:rgb(0,0,0);stroke-width:1;stroke-linecap:round"></path><path d="M324.53624081571195,114.23223629821781L310.633351634098,118.70056740359047L310.633351634098,64.34773204765483zM324.53624081571195,59.87940094228216L324.53624081571195,114.23223629821781L310.633351634098,64.34773204765483z" style="fill:rgb(238,238,238); fill-opacity: 0.38"></path><path d="M339.4008564115066,64.05863529815277L324.53624081571195,59.87940094228216M324.53624081571195,59.87940094228216L310.63335163409795,64.34773204765483" style="fill:none;stroke:rgb(0,0,0);stroke-width:1;stroke-linecap:round"></path><path d="M325.49796722989265,122.87980175946107L310.633351634098,118.70056740359047L339.4008564115066,118.4114706540884zM339.4008564115066,64.05863529815277L339.4008564115066,118.4114706540884L324.53624081571195,59.87940094228216zM325.49796722989265,122.87980175946107L339.4008564115066,118.4114706540884L339.4008564115066,64.05863529815277z" style="fill:rgb(238,238,238); fill-opacity: 0.38"></path><path d="M325.4979672298926,68.52696640352542L325.4979672298926,122.87980175946107" style="fill:none;stroke:rgb(0,0,0);stroke-width:1;stroke-linecap:round"></path><path d="M310.633351634098,118.70056740359047L325.49796722989265,122.87980175946107L325.49796722989265,68.52696640352542zM310.633351634098,64.34773204765483L310.633351634098,118.70056740359047L325.49796722989265,68.52696640352542z" style="fill:rgb(238,238,238); fill-opacity: 0.38"></path><path d="M339.4008564115066,64.05863529815277L325.4979672298926,68.52696640352542" style="fill:none;stroke:rgb(0,0,0);stroke-width:1;stroke-linecap:round"></path><path d="M325.49796722989265,68.52696640352542L339.4008564115066,64.05863529815277L324.53624081571195,59.87940094228216z" style="fill:rgb(238,238,238); fill-opacity: 0.38"></path><path d="M334.5939225148614,94.07215458940094L358.89837728015357,100.90543000787515" style="fill:none;stroke:rgb(0,0,0);stroke-width:1;stroke-linecap:round"></path><path d="M310.633351634098,64.34773204765483L325.49796722989265,68.52696640352542L324.53624081571195,59.87940094228216z" style="fill:rgb(238,238,238); fill-opacity: 0.38"></path><path d="M310.63335163409795,64.34773204765483L325.4979672298926,68.52696640352542" style="fill:none;stroke:rgb(0,0,0);stroke-width:1;stroke-linecap:round"></path><path d="M325.49796722989265,68.52696640352542L325.49796722989265,122.87980175946107L339.4008564115066,64.05863529815277z" style="fill:rgb(238,238,238); fill-opacity: 0.38"></path><path d="M397.1556862581478,120.36988099128877L382.29107066235315,116.19064663541816M382.29107066235315,90.39690194729371L382.29107066235315,116.19064663541816M382.29107066235315,116.19064663541816L368.38818148073915,120.65897774079083" style="fill:none;stroke:rgb(0,0,0);stroke-width:1;stroke-linecap:round"></path><path d="M354.1293924181556,104.60168292699588L358.8983772801536,107.9067305266959L373.1951153773843,104.9250037834482zM361.8457719015589,94.29397840181632L355.9509826587483,96.18853929410196L373.1951153773843,104.9250037834482zM355.9509826587483,96.18853929410196L354.1293924181556,104.60168292699588L373.1951153773843,104.9250037834482z" style="fill:rgb(0,0,0)"></path><path d="M397.1556862581478,120.36988099128877L382.29107066235315,116.19064663541816L382.29107066235315,90.39690194729371z" style="fill:rgb(238,238,238); fill-opacity: 0.38"></path><path d="M397.1556862581478,94.5761363031643L382.29107066235315,90.39690194729371M382.29107066235315,90.39690194729371L368.38818148073915,94.86523305266637" style="fill:none;stroke:rgb(0,0,0);stroke-width:1;stroke-linecap:round"></path><path d="M368.3881814807392,120.65897774079083L382.29107066235315,116.19064663541816L397.1556862581478,120.36988099128877zM382.29107066235315,90.39690194729371L382.29107066235315,116.19064663541816L368.3881814807392,94.86523305266637z" style="fill:rgb(238,238,238); fill-opacity: 0.38"></path><path d="M355.63948234081465,121.70029803398492h29.363261237013205v14.681630618506686h-29.363261237013205z" style="fill:rgb(255,255,255)"></path><path d="M382.29107066235315,116.19064663541816L368.3881814807392,120.65897774079083L368.3881814807392,94.86523305266637z" style="fill:rgb(238,238,238); fill-opacity: 0.38"></path><path d="M397.1556862581478,94.5761363031643L397.1556862581478,120.36988099128877M397.1556862581478,120.36988099128877L383.2527970765338,124.83821209666142M368.38818148073915,94.86523305266637L368.38818148073915,120.65897774079083M368.38818148073915,120.65897774079083L383.2527970765338,124.83821209666142" style="fill:none;stroke:rgb(0,0,0);stroke-width:1;stroke-linecap:round"></path><path d="M397.1556862581478,94.5761363031643L397.1556862581478,120.36988099128877L382.29107066235315,90.39690194729371zM383.2527970765338,124.83821209666142L368.3881814807392,120.65897774079083L397.1556862581478,120.36988099128877zM383.2527970765338,124.83821209666142L397.1556862581478,120.36988099128877L397.1556862581478,94.5761363031643z" style="fill:rgb(238,238,238); fill-opacity: 0.38"></path><path d="M397.1556862581478,94.5761363031643L383.2527970765338,99.04446740853697" style="fill:none;stroke:rgb(0,0,0);stroke-width:1;stroke-linecap:round"></path><path d="M383.2527970765338,99.04446740853697L397.1556862581478,94.5761363031643L382.29107066235315,90.39690194729371zM368.3881814807392,94.86523305266637L383.2527970765338,99.04446740853697L382.29107066235315,90.39690194729371z" style="fill:rgb(238,238,238); fill-opacity: 0.38"></path><path d="M368.38818148073915,94.86523305266637L383.2527970765338,99.04446740853697" style="fill:none;stroke:rgb(0,0,0);stroke-width:1;stroke-linecap:round"></path><path d="M368.3881814807392,94.86523305266637L368.3881814807392,120.65897774079083L383.2527970765338,99.04446740853697zM368.3881814807392,120.65897774079083L383.2527970765338,124.83821209666142L383.2527970765338,99.04446740853697z" style="fill:rgb(238,238,238); fill-opacity: 0.38"></path><path d="M383.2527970765338,99.04446740853697L383.2527970765338,124.83821209666142" style="fill:none;stroke:rgb(0,0,0);stroke-width:1;stroke-linecap:round"></path><path d="M383.2527970765338,99.04446740853697L383.2527970765338,124.83821209666142L397.1556862581478,94.5761363031643z" style="fill:rgb(238,238,238); fill-opacity: 0.38"></path></svg>